<?xml version="1.0" encoding="UTF-8"?>
<!DOCTYPE svg PUBLIC "-//W3C//DTD SVG 1.1//EN" "http://www.w3.org/Graphics/SVG/1.1/DTD/svg11.dtd">
<!-- Creator: CorelDRAW 2020 (64-Bit Evaluation Version) -->
<svg xmlns="http://www.w3.org/2000/svg" xml:space="preserve" width="140px" height="70px" version="1.1" style="shape-rendering:geometricPrecision; text-rendering:geometricPrecision; image-rendering:optimizeQuality; fill-rule:evenodd; clip-rule:evenodd"
viewBox="0 0 140 70"
 xmlns:xlink="http://www.w3.org/1999/xlink"
 xmlns:xodm="http://www.corel.com/coreldraw/odm/2003">
 <defs>
  <style type="text/css">
   <![CDATA[
    .fil0 {fill:none}
    .fil3 {fill:#2879C9;fill-rule:nonzero}
    .fil2 {fill:#666666;fill-rule:nonzero}
    .fil1 {fill:#B0CB1F;fill-rule:nonzero}
   ]]>
  </style>
    <clipPath id="id0">
     <rect x="119.44" y="18.01" width="20.73" height="15.24"/>
    </clipPath>
 </defs>
 <g id="Layer_x0020_1">
  <metadata id="CorelCorpID_0Corel-Layer"/>
  <g id="_2601076186960">
   <rect class="fil0" width="140" height="70"/>
   <g>
    <rect class="fil0" x="2.16" y="2.74" width="134.66" height="67.26"/>
    <path class="fil1" d="M42.78 22.21c1.08,0 2,0.92 2,2.05 0,1.07 -0.92,1.99 -2,1.99 -1.12,0 -2.05,-0.92 -2.05,-1.99 0,-1.13 0.93,-2.05 2.05,-2.05z"/>
    <path class="fil1" d="M44.37 30.97l0 11.47 -3.64 0 0 -14.5 1.03 0c1.43,0 2.61,1.18 2.61,2.62l0 0.41 0 0z"/>
    <path class="fil1" d="M47.39 14.98c1.9,0 3.49,1.59 3.49,3.49 0,1.89 -1.59,3.43 -3.49,3.43 -1.89,0 -3.43,-1.54 -3.43,-3.43 0,-1.9 1.54,-3.49 3.43,-3.49z"/>
    <path class="fil2" d="M70.6 56.22c0.36,0 0.61,-0.16 0.77,-0.31l-0.21 -0.46c-0.05,0.1 -0.26,0.21 -0.41,0.21 -0.31,0 -0.41,-0.26 -0.41,-0.57l0 -2.51 0.82 0 0 -0.56 -0.82 0 0 -1.08 -0.66 0 0 1.08 -0.67 0 0 0.56 0.67 0 0 2.67c0,0.61 0.3,0.97 0.92,0.97z"/>
    <path id="_1" class="fil2" d="M75.41 56.12l0 -2.87c0,-0.92 -0.41,-1.33 -1.28,-1.33 -0.61,0 -1.18,0.35 -1.43,0.71l0 -2.15 -0.67 0 0 5.64 0.67 0 0 -2.97c0.2,-0.36 0.71,-0.67 1.18,-0.67 0.56,0 0.92,0.2 0.92,0.92l0 2.72 0.61 0 0 0z"/>
    <path id="_2" class="fil2" d="M77 51.46c0.26,0 0.41,-0.21 0.41,-0.41 0,-0.26 -0.15,-0.47 -0.41,-0.47 -0.2,0 -0.41,0.21 -0.41,0.47 0,0.2 0.21,0.41 0.41,0.41zm0.31 4.66l0 -4.1 -0.62 0 0 4.1 0.62 0z"/>
    <path id="_3" class="fil2" d="M81.97 56.12l0 -2.87c0,-0.87 -0.46,-1.33 -1.28,-1.33 -0.62,0 -1.18,0.35 -1.49,0.71l0 -0.61 -0.61 0 0 4.1 0.61 0 0 -2.97c0.26,-0.36 0.72,-0.67 1.23,-0.67 0.56,0 0.92,0.26 0.92,0.97l0 2.67 0.62 0 0 0z"/>
    <polygon id="_4" class="fil2" points="86.78,56.12 84.99,53.86 86.78,52.02 86.01,52.02 83.86,54.17 83.86,50.48 83.25,50.48 83.25,56.12 83.86,56.12 83.86,54.94 84.53,54.27 86.01,56.12 "/>
    <path id="_5" class="fil2" d="M87.86 51.46c0.25,0 0.46,-0.21 0.46,-0.41 0,-0.26 -0.21,-0.47 -0.46,-0.47 -0.21,0 -0.41,0.21 -0.41,0.47 0,0.2 0.2,0.41 0.41,0.41zm0.31 4.66l0 -4.1 -0.62 0 0 4.1 0.62 0z"/>
    <path id="_6" class="fil2" d="M92.83 56.12l0 -2.87c0,-0.87 -0.46,-1.33 -1.28,-1.33 -0.62,0 -1.18,0.35 -1.49,0.71l0 -0.61 -0.61 0 0 4.1 0.61 0 0 -2.97c0.26,-0.36 0.72,-0.67 1.23,-0.67 0.56,0 0.92,0.26 0.92,0.97l0 2.67 0.62 0 0 0z"/>
    <path id="_7" class="fil2" d="M95.75 57.76c0.97,0 1.89,-0.41 1.89,-1.8l0 -3.94 -0.61 0 0 0.61c-0.31,-0.41 -0.82,-0.71 -1.38,-0.71 -1.03,0 -1.8,0.82 -1.8,2.15 0,1.28 0.77,2.1 1.8,2.1 0.61,0 1.07,-0.31 1.38,-0.77l0 0.61c0,0.87 -0.62,1.23 -1.28,1.23 -0.62,0 -1.03,-0.15 -1.33,-0.56l-0.36 0.46c0.51,0.46 0.97,0.62 1.69,0.62zm0.05 -2.16c-0.82,0 -1.28,-0.66 -1.28,-1.53 0,-0.92 0.46,-1.59 1.28,-1.59 0.51,0 1.02,0.31 1.23,0.67l0 1.79c-0.21,0.36 -0.72,0.66 -1.23,0.66l0 0z"/>
    <path id="_8" class="fil2" d="M102.92 56.22c0.66,0 1.23,-0.26 1.64,-0.67l-0.31 -0.41c-0.31,0.36 -0.82,0.52 -1.28,0.52 -0.87,0 -1.38,-0.62 -1.44,-1.39l3.28 0 0 -0.15c0,-1.23 -0.71,-2.2 -1.94,-2.2 -1.18,0 -2,0.97 -2,2.15 0,1.28 0.87,2.15 2.05,2.15zm1.28 -2.41l-2.66 0c0,-0.61 0.46,-1.38 1.33,-1.38 0.92,0 1.33,0.77 1.33,1.38l0 0z"/>
    <polygon id="_9" class="fil2" points="107.63,56.12 109.32,52.02 108.6,52.02 107.27,55.35 105.89,52.02 105.22,52.02 106.91,56.12 "/>
    <path id="_10" class="fil2" d="M111.78 56.22c0.67,0 1.23,-0.26 1.64,-0.67l-0.31 -0.41c-0.31,0.36 -0.77,0.52 -1.23,0.52 -0.92,0 -1.43,-0.62 -1.48,-1.39l3.28 0 0 -0.15c0,-1.23 -0.72,-2.2 -1.95,-2.2 -1.18,0 -2,0.97 -2,2.15 0,1.28 0.87,2.15 2.05,2.15zm1.28 -2.41l-2.66 0c0.05,-0.61 0.46,-1.38 1.33,-1.38 0.92,0 1.33,0.77 1.33,1.38l0 0z"/>
    <path id="_11" class="fil2" d="M115.31 56.12l0 -2.92c0.21,-0.31 0.72,-0.62 1.13,-0.62 0.1,0 0.15,0 0.26,0l0 -0.61c-0.57,0 -1.03,0.3 -1.39,0.71l0 -0.66 -0.61 0 0 4.1 0.61 0 0 0z"/>
    <path id="_12" class="fil2" d="M117.26 57.7c0.1,0 0.31,0.06 0.46,0.06 0.56,0 0.97,-0.26 1.18,-0.82l2.05 -4.92 -0.67 0 -1.38 3.33 -1.33 -3.33 -0.67 0 1.69 4.1 -0.25 0.61c-0.16,0.36 -0.36,0.46 -0.62,0.46 -0.1,0 -0.25,-0.05 -0.36,-0.05l-0.1 0.56 0 0z"/>
    <path id="_13" class="fil2" d="M124.43 54.99l0 -1.84c0.21,-0.36 0.72,-0.67 1.18,-0.67 0.82,0 1.33,0.67 1.33,1.59 0,0.92 -0.51,1.59 -1.33,1.59 -0.46,0 -0.97,-0.31 -1.18,-0.67l0 0zm0 1.13l0 -0.62c0.31,0.41 0.77,0.72 1.33,0.72 1.08,0 1.85,-0.82 1.85,-2.15 0,-1.28 -0.77,-2.15 -1.85,-2.15 -0.51,0 -1.02,0.3 -1.33,0.71l0 -2.15 -0.66 0 0 5.64 0.66 0z"/>
    <path id="_14" class="fil2" d="M128.94 51.46c0.26,0 0.41,-0.21 0.41,-0.41 0,-0.26 -0.15,-0.47 -0.41,-0.47 -0.21,0 -0.41,0.21 -0.41,0.47 0,0.2 0.2,0.41 0.41,0.41zm0.31 4.66l0 -4.1 -0.62 0 0 4.1 0.62 0z"/>
    <path id="_15" class="fil2" d="M131.55 56.22c0.36,0 0.62,-0.16 0.77,-0.31l-0.2 -0.46c-0.11,0.1 -0.26,0.21 -0.41,0.21 -0.31,0 -0.41,-0.26 -0.41,-0.57l0 -2.51 0.82 0 0 -0.56 -0.82 0 0 -1.08 -0.67 0 0 1.08 -0.67 0 0 0.56 0.67 0 0 2.67c0,0.61 0.31,0.97 0.92,0.97z"/>
    <path class="fil3" d="M82.43 22.21c1.08,0 1.95,0.87 1.95,1.94 0,1.08 -0.87,1.95 -1.95,1.95 -1.08,0 -1.95,-0.87 -1.95,-1.95 0,-1.07 0.87,-1.94 1.95,-1.94zm40.11 11.73l6.19 0 0 -0.11c0,-1.99 -1.02,-3.02 -3.02,-3.02 -1.94,0 -3.02,1.03 -3.17,3.13l0 0zm3.17 -6c4.41,0 6.61,2.26 6.61,6.76 0,0.57 -0.05,1.18 -0.15,1.8l-9.63 0c0,2.05 1.48,3.07 4.5,3.07 0.41,0 0.87,-0.05 1.29,-0.05l0 0 0.87 0c1.17,0 2.15,0.82 2.25,1.95l0 0.56c-1.28,0.31 -2.82,0.41 -4.66,0.41 -5.28,0 -7.89,-2.46 -7.89,-7.43 0,-4.71 2.25,-7.07 6.81,-7.07l0 0zm-74.58 2.16c0.92,-0.98 1.95,-1.59 3.08,-1.9l0 0c0.51,-0.15 1.07,-0.26 1.69,-0.26 3.43,0 5.17,1.8 5.17,5.38l0 9.12 -3.69 0 0 -9.12c0,-1.38 -0.56,-2.15 -1.69,-2.35l-0.05 0 0 0 0 0 0 0 -0.05 0 0 0 -0.05 0 -0.05 -0.06 0 0 -0.05 0 -0.06 0 0 0 -0.05 0 -0.05 0 0 0 -0.05 0 0 0 -0.1 0 0 0c-0.05,0 -0.1,0 -0.16,0 0,0 -0.05,0 -0.1,0l0 0 -0.05 0 -0.05 0 0 0 -0.05 0 0 0 -0.05 0 -0.05 0 -0.06 0 -0.05 0 -0.05 0 0 0 -0.05 0.06 -0.05 0 0 0c-0.05,0 -0.1,0 -0.1,0l-0.05 0 0 0c-0.06,0 -0.11,0.05 -0.16,0.05l-0.05 0 -0.05 0 -0.05 0.05 -0.05 0 -0.1 0 0 0 0 0 -0.06 0.05 -0.1 0 0 0c-0.05,0 -0.05,0.05 -0.1,0.05 -0.67,0.21 -1.33,0.62 -2,1.18l0 10.09 -3.64 0 0 -14.5 0.88 0c1.28,0 2.25,1.03 2.25,2.26l0 0.05c0.05,-0.05 0.1,-0.1 0.15,-0.15l0 0zm50.05 0.87l0 11.47 -3.64 0 0 -14.5 1.02 0c1.44,0 2.62,1.18 2.62,2.62l0 0.41 0 0zm-79.35 -5.64l0 0.62 -5.73 0 0 16.49 -3.69 0 0 -16.49 -2.05 0 -1.08 0c-1.43,-0.06 -2.61,-1.23 -2.61,-2.67l0 -0.56 11.53 0 1.02 0c1.44,0 2.61,1.18 2.61,2.61zm65.67 0.26l0.92 0c1.23,0 2.26,1.02 2.26,2.25l0 0.1 0.1 0 1.02 0c1.44,0 2.62,1.18 2.62,2.62l0 0.3 -3.23 0 0 6.66c0,1.28 0.51,2 1.59,2.05l0 0 0 0c0.05,0 0.1,0 0.15,0 1.28,0.05 2.36,1.18 2.36,2.51 0,0.1 0,0.26 0,0.36l-4.15 0c-2.41,0 -3.64,-1.28 -3.64,-3.89l0 -12.96 0 0zm-3.23 5.38l0 11.47 -3.68 0 0 -14.5 1.02 0c1.49,0 2.66,1.18 2.66,2.62l0 0.41 0 0zm-16.13 -5.13c0,-1.43 -1.18,-2.61 -2.61,-2.61l-1.03 0 0 19.21 3.69 0 0 -7.22 5.84 7.22 4.46 0 -5.84 -7.22 5.84 -7.28 -4.46 0 -5.84 7.28 -0.05 -9.38zm-44.05 16.6l0 -19.77 0 0 0 0.05 1.02 0c1.44,0 2.61,1.18 2.61,2.61l0 0.41 0 0 0 4.05c1.18,-1.23 2.62,-1.85 4.41,-1.85 3.43,0 5.12,1.8 5.12,5.38l0 9.12 -3.64 0 0 -9.12c0,-1.64 -0.82,-2.41 -2.4,-2.41 -1.18,0 -2.36,0.47 -3.49,1.44l0 10.09 -3.63 0zm78.83 -14.5l0 0 1.07 0c1.44,0 3.18,1.08 3.69,2.62l2.61 7.53 2.62 -7.43c0.51,-1.49 2.46,-2.72 3.89,-2.72l1.02 0 -5.89 14.5 -3.48 0 -5.53 -14.5zm-3.54 -5.73c1.08,0 1.95,0.87 1.95,1.94 0,1.08 -0.87,1.95 -1.95,1.95 -1.07,0 -1.94,-0.87 -1.94,-1.95 0,-1.07 0.87,-1.94 1.94,-1.94z"/>
   </g>
   <g style="clip-path:url(#id0)">
    <image x="119.44" y="18.01" width="20.74" height="15.24" xlink:href="thinkitive-dark-logo-v-12_Images\thinkitive-dark-logo-v-12_ImgID1.png"/>
   </g>
  </g>
 </g>
</svg>
